<?xml version="1.0" encoding="utf-8"?>
<!-- Generator: Adobe Illustrator 24.1.2, SVG Export Plug-In . SVG Version: 6.00 Build 0)  -->
<svg version="1.1" id="Layer_1" xmlns="http://www.w3.org/2000/svg" xmlns:xlink="http://www.w3.org/1999/xlink" x="0px" y="0px"
	 viewBox="0 0 375 779" style="enable-background:new 0 0 375 779;" xml:space="preserve">
<style type="text/css">
	.st0{fill:#6070FF;}
	.st1{fill:#7F8CFF;}
	.st2{fill:#FFFFFF;}
</style>
<path class="st0" d="M0,779h375V0H80C35.8,0,0,35.8,0,80V779z"/>
<g>
	
		<rect x="307.2" y="36" transform="matrix(0.9193 -0.3936 0.3936 0.9193 10.2463 139.1897)" class="st1" width="74.7" height="17.2"/>
	<path class="st2" d="M409,72.4c-3.5-6.1-8.3-11.3-14.2-15.2c-5.9-3.9-12.6-6.3-19.6-7.2c-7-0.8-14.1,0-20.8,2.4
		c-6.6,2.4-12.6,6.3-17.5,11.4c-4.8,5.1-8.4,11.3-10.4,18c-2,6.7-2.3,13.8-1,20.7s4.2,13.3,8.5,18.9c4.3,5.5,9.9,10,16.2,13
		l8.4-17.3c-3.6-1.7-6.8-4.3-9.2-7.4c-2.4-3.2-4.1-6.8-4.9-10.8c-0.7-3.9-0.5-7.9,0.6-11.8c1.1-3.8,3.2-7.3,5.9-10.2
		s6.2-5.1,9.9-6.5c3.8-1.4,7.8-1.8,11.8-1.3c4,0.5,7.8,1.9,11.2,4.1c3.3,2.2,6.1,5.2,8.1,8.6L409,72.4z"/>
	<circle class="st1" cx="160.3" cy="66.5" r="10.5"/>
	
		<rect x="283.4" y="655.1" transform="matrix(0.5982 -0.8014 0.8014 0.5982 -438.9082 511.1021)" class="st1" width="13.6" height="76.2"/>
	
		<ellipse transform="matrix(0.7755 -0.6313 0.6313 0.7755 -386.6942 330.9578)" class="st2" cx="272" cy="709.2" rx="15.6" ry="15.6"/>
</g>
</svg>
